<?xml version="1.0" standalone="no"?>
<!DOCTYPE svg PUBLIC "-//W3C//DTD SVG 20010904//EN"
 "http://www.w3.org/TR/2001/REC-SVG-20010904/DTD/svg10.dtd">
<svg version="1.0" xmlns="http://www.w3.org/2000/svg"
 width="260.000000pt" height="260.000000pt" viewBox="0 0 260.000000 260.000000"
 preserveAspectRatio="xMidYMid meet">
<metadata>
Created by potrace 1.11, written by Peter Selinger 2001-2013
</metadata>
<g transform="translate(0.000000,260.000000) scale(0.100000,-0.100000)"
fill="#000000" stroke="none">
<path d="M1165 2239 c-22 -4 -57 -10 -79 -13 -50 -8 -176 -51 -229 -78 -328
-165 -534 -507 -522 -863 3 -108 9 -144 42 -255 24 -82 93 -225 130 -271 64
-78 98 -117 122 -137 14 -13 37 -33 51 -45 79 -69 225 -144 346 -178 111 -30
312 -37 420 -14 43 9 84 18 91 19 7 1 16 5 19 9 4 4 14 7 21 7 8 0 52 18 97
40 l83 39 49 -47 c44 -42 128 -86 185 -96 8 -1 25 -6 38 -10 36 -12 44 12 16
49 -43 55 -77 146 -81 211 -3 61 -2 63 49 131 29 37 66 95 84 128 29 55 79
190 89 240 27 133 24 306 -7 430 -25 98 -106 273 -144 311 -8 9 -15 19 -15 24
0 16 -161 170 -221 210 -113 78 -266 136 -404 156 -70 10 -182 11 -230 3z"/>
</g>
</svg>
