<?xml version="1.0" standalone="no"?>
<!DOCTYPE svg PUBLIC "-//W3C//DTD SVG 20010904//EN"
 "http://www.w3.org/TR/2001/REC-SVG-20010904/DTD/svg10.dtd">
<svg version="1.0" xmlns="http://www.w3.org/2000/svg"
 width="260.000000pt" height="260.000000pt" viewBox="0 0 260.000000 260.000000"
 preserveAspectRatio="xMidYMid meet">
<metadata>
Created by potrace 1.11, written by Peter Selinger 2001-2013
</metadata>
<g transform="translate(0.000000,260.000000) scale(0.100000,-0.100000)"
fill="#000000" stroke="none">
<path d="M1160 2554 c-318 -41 -576 -167 -782 -382 -223 -234 -338 -523 -338
-851 0 -184 32 -343 102 -499 l23 -53 350 351 350 350 -159 159 -158 159 398
6 c220 3 490 8 602 10 l203 5 -7 -597 c-3 -328 -8 -599 -11 -602 -2 -2 -74 67
-161 153 l-157 157 -351 -351 -352 -351 52 -23 c163 -71 325 -105 504 -105
209 0 357 33 543 122 l106 50 52 -55 c32 -33 76 -67 116 -86 70 -35 203 -68
229 -58 15 6 14 12 -12 49 -75 109 -112 213 -112 314 0 59 2 64 54 129 254
319 332 755 206 1148 -136 423 -505 749 -942 832 -84 16 -285 27 -348 19z"/>
</g>
</svg>
